<?xml version="1.0" encoding="iso-8859-1"?>
<!-- Generator: Adobe Illustrator 19.0.0, SVG Export Plug-In . SVG Version: 6.00 Build 0)  -->
<svg xmlns="http://www.w3.org/2000/svg" xmlns:xlink="http://www.w3.org/1999/xlink" version="1.1" id="Layer_1" x="0px" y="0px" viewBox="0 0 512 512" style="enable-background:new 0 0 512 512;" xml:space="preserve" width="512px" height="512px">
<g>
	<g>
		<path d="M365.714,249.905v-60.952l-146.286,60.952v-60.952h-54.857v-85.333H128v85.333H91.429V42.667H54.857v146.286H0v280.381    h512V188.952L365.714,249.905z M201.143,432.762h-36.571V396.19h36.571V432.762z M274.286,432.762h-36.571V396.19h36.571V432.762z     M347.429,432.762h-36.571V396.19h36.571V432.762z M475.429,432.762H384v-73.143H128v73.143H36.571V225.524h146.286v24.381v54.857    l50.638-21.099l95.648-39.853v6.095v54.857l50.638-21.099l95.648-39.853V432.762z" fill="#FFFFFF"/>
	</g>
</g>
<g>
</g>
<g>
</g>
<g>
</g>
<g>
</g>
<g>
</g>
<g>
</g>
<g>
</g>
<g>
</g>
<g>
</g>
<g>
</g>
<g>
</g>
<g>
</g>
<g>
</g>
<g>
</g>
<g>
</g>
</svg>
